<?xml version="1.0" encoding="utf-8"?>
<!-- Generator: Adobe Illustrator 25.0.1, SVG Export Plug-In . SVG Version: 6.00 Build 0)  -->
<svg version="1.1" id="Capa_1" xmlns="http://www.w3.org/2000/svg" xmlns:xlink="http://www.w3.org/1999/xlink" x="0px" y="0px"
	 viewBox="0 0 1920 1080" style="enable-background:new 0 0 1920 1080;" xml:space="preserve">
<style type="text/css">
	.st0{fill:#42210B;stroke:#42210B;stroke-linecap:round;stroke-miterlimit:10;}
	.st1{fill:#A67C52;stroke:#A67C52;stroke-linecap:round;stroke-miterlimit:10;}
	.st2{fill:#8C6239;stroke:#754C24;stroke-linecap:round;stroke-miterlimit:10;}
	.st3{fill:#C69C6D;stroke:#C69C6D;stroke-linecap:round;stroke-miterlimit:10;}
	.st4{stroke:#1D1D1B;stroke-linecap:round;stroke-miterlimit:10;}
	.st5{fill:#FFFFFF;stroke:#1D1D1B;stroke-linecap:round;stroke-miterlimit:10;}
	.st6{fill:#FBB03B;stroke:#F7931E;stroke-linecap:round;stroke-miterlimit:10;}
	.st7{fill:#FBB03B;stroke:#FBB03B;stroke-miterlimit:10;}
	.st8{font-family:'UtopiaStd-BlackHeadline';}
	.st9{font-size:235.7632px;}
	.st10{letter-spacing:-11.55;}
</style>
<path id="Oreja_derecha" class="st0" d="M1148.18,251.9l-28.34-84.46c-3.73-11.11-17.69-14.67-26.28-6.71l-53.72,49.78
	c-8.6,7.97-6.11,22.15,4.69,26.72l82.06,34.68C1139.4,277.32,1152.6,265.08,1148.18,251.9z"/>
<path id="Oreja_izquierda" class="st0" d="M850.86,274.23l77.29-35.53c11.05-5.08,12.73-20.1,3.07-27.49l-63.14-48.34
	c-9.66-7.39-23.72-1.86-25.74,10.14l-14.14,83.88C826.04,269.67,839.08,279.65,850.86,274.23z"/>
<ellipse id="Pata_izquierda" transform="matrix(0.7074 -0.7069 0.7069 0.7074 -148.4699 816.842)" class="st1" cx="912.28" cy="587.73" rx="71.81" ry="52.33"/>
<ellipse id="Pata_derecha" transform="matrix(0.7071 -0.7071 0.7071 0.7071 -108.4765 913.6671)" class="st1" cx="1048.59" cy="587.77" rx="49.87" ry="73.53"/>
<ellipse id="Cuerpo" class="st2" cx="983" cy="400" rx="238.5" ry="190.5"/>
<ellipse id="Pecho" class="st3" cx="983" cy="468.5" rx="130.5" ry="119"/>
<path id="Ala_izquierda" class="st0" d="M850.63,558.34c-28.3,15.06-70.63-24.73-94.53-88.89c-23.91-64.16-20.35-128.38,7.95-143.44
	c28.3-15.06,70.63,24.73,94.53,88.89C882.49,479.05,878.92,543.27,850.63,558.34z"/>
<path id="Parte_fondo_ojos" class="st3" d="M1056.28,227.79c-31.76,0-59.32,15.43-72.88,37.89c-13.66-22.2-41.06-37.4-72.58-37.4
	c-45.12,0-81.82,31.11-81.82,69.36S865.7,367,910.82,367c31.76,0,59.32-15.43,72.88-37.89c13.66,22.2,41.06,37.4,72.58,37.4
	c45.12,0,81.82-31.11,81.82-69.36S1101.39,227.79,1056.28,227.79z"/>
<ellipse id="Fondo_ojo_izquierdo" class="st4" cx="905.65" cy="297.15" rx="54.85" ry="52.35"/>
<ellipse id="Fondo_ojo_derecho" class="st4" cx="1063.28" cy="297.15" rx="54.85" ry="52.35"/>
<ellipse id="Ojo_izquierdo" class="st5" cx="895.26" cy="271.13" rx="28.72" ry="13.02"/>
<path id="Pico" class="st6" d="M978.8,365.69l-13.42-23.24c-3.64-6.31,0.91-14.2,8.2-14.2h26.83c7.29,0,11.84,7.89,8.2,14.2
	l-13.42,23.24C991.55,372,982.44,372,978.8,365.69z"/>
<ellipse id="Ojo_derecho" class="st5" cx="1057.98" cy="271.47" rx="28.72" ry="13.02"/>
<path id="Ala_derecha" class="st0" d="M1110.54,557.75c-31.16-7.55-36.35-65.41-11.59-129.24
	c24.76-63.84,70.09-109.46,101.25-101.92c31.15,7.55,36.35,65.41,11.59,129.24C1187.03,519.67,1141.7,565.29,1110.54,557.75z"/>
<g id="Plumas">
	<path class="st2" d="M896.02,421.23C917.52,444.95,945,421,945,421"/>
	<path class="st2" d="M958.97,421.53c21.5,23.73,48.98-0.23,48.98-0.23"/>
	<path class="st2" d="M1020.97,421.53c21.5,23.73,48.98-0.23,48.98-0.23"/>
	<path class="st2" d="M923.97,467.53c21.5,23.73,48.98-0.23,48.98-0.23"/>
	<path class="st2" d="M996.97,467.53c21.5,23.73,48.98-0.23,48.98-0.23"/>
	<path class="st2" d="M962.97,503.42c21.39,23.83,48.98,0,48.98,0"/>
</g>
<text transform="matrix(0.9522 0 0 1 807.8301 823.4004)" class="st7 st8 st9 st10">Ibis</text>
</svg>
