<?xml version="1.0" encoding="utf-8"?>
<!-- Generator: Adobe Illustrator 25.0.1, SVG Export Plug-In . SVG Version: 6.00 Build 0)  -->
<svg version="1.1" id="Capa_1" xmlns="http://www.w3.org/2000/svg" xmlns:xlink="http://www.w3.org/1999/xlink" x="0px" y="0px"
	 viewBox="0 0 100 100" style="enable-background:new 0 0 100 100;" xml:space="preserve">
<style type="text/css">
	.st0{fill:#42210B;}
	.st1{fill:#A67C52;}
	.st2{fill:#8C6239;}
	.st3{fill:#C69C6D;}
	.st4{fill:#FFFFFF;}
	.st5{fill:#FBB03B;}
</style>
<g id="Buho">
	<path id="Oreja_derecha" class="st0" d="M72.7,24L69,12.1c-0.5-1.6-2.3-2.1-3.4-0.9l-7,7c-1.1,1.1-0.8,3.1,0.6,3.7l10.7,4.9
		C71.6,27.5,73.3,25.8,72.7,24z"/>
	<path id="Oreja_izquierda" class="st0" d="M33.9,27.1l10.1-5c1.4-0.7,1.7-2.8,0.4-3.9l-8.3-6.8c-1.3-1-3.1-0.3-3.4,1.4l-1.8,11.8
		C30.6,26.5,32.3,27.9,33.9,27.1z"/>
	
		<ellipse id="Pata_izquierda" transform="matrix(0.6226 -0.7825 0.7825 0.6226 -39.8202 59.6174)" class="st1" cx="41.9" cy="71.1" rx="9.8" ry="7.1"/>
	
		<ellipse id="Pata_derecha" transform="matrix(0.7707 -0.6371 0.6371 0.7707 -31.6172 54.3494)" class="st1" cx="59.7" cy="71.1" rx="6.7" ry="10"/>
	<ellipse id="Cuerpo" class="st2" cx="51.1" cy="44.8" rx="31.2" ry="26.7"/>
	<ellipse id="Pecho" class="st3" cx="51.1" cy="54.4" rx="17.1" ry="16.7"/>
	<path id="Ala_izquierda" class="st0" d="M33.8,67c-3.7,2.1-9.2-3.5-12.4-12.5c-3.1-9-2.7-18,1-20.1s9.2,3.5,12.4,12.5
		C38,55.8,37.5,64.9,33.8,67z"/>
	<path id="Parte_fondo_ojos" class="st3" d="M60.7,20.6c-4.2,0-7.8,2.2-9.5,5.3c-1.8-3.1-5.4-5.2-9.5-5.2C35.8,20.7,31,25,31,30.4
		s4.8,9.7,10.7,9.7c4.2,0,7.8-2.2,9.5-5.3c1.8,3.1,5.4,5.2,9.5,5.2c5.9,0,10.7-4.4,10.7-9.7S66.6,20.6,60.7,20.6z"/>
	<ellipse id="Fondo_ojo_izquierdo" cx="41" cy="30.3" rx="7.2" ry="7.3"/>
	<ellipse id="Fondo_ojo_derecho" cx="61.6" cy="30.3" rx="7.2" ry="7.3"/>
	<ellipse id="Ojo_izquierdo" class="st4" cx="39.7" cy="26.7" rx="3.8" ry="1.8"/>
	<path id="Pico" class="st5" d="M50.6,39.9l-1.8-3.3c-0.5-0.9,0.1-2,1.1-2h3.5c1,0,1.5,1.1,1.1,2l-1.8,3.3
		C52.3,40.8,51.1,40.8,50.6,39.9z"/>
	<ellipse id="Ojo_derecho" class="st4" cx="60.9" cy="26.7" rx="3.8" ry="1.8"/>
	<path id="Ala_derecha" class="st0" d="M67.8,66.9c-4.1-1.1-4.8-9.2-1.5-18.1c3.2-9,9.2-15.4,13.2-14.3c4.1,1.1,4.8,9.2,1.5,18.1
		C77.8,61.5,71.9,67.9,67.8,66.9z"/>
	<g id="Plumas">
		<path class="st2" d="M39.8,47.7c2.8,3.3,6.4,0,6.4,0"/>
		<path class="st2" d="M48,47.8c2.8,3.3,6.4,0,6.4,0"/>
		<path class="st2" d="M56.1,47.8c2.8,3.3,6.4,0,6.4,0"/>
		<path class="st2" d="M43.4,54.2c2.8,3.3,6.4,0,6.4,0"/>
		<path class="st2" d="M53,54.2c2.8,3.3,6.4,0,6.4,0"/>
		<path class="st2" d="M48.5,59.3c2.8,3.3,6.4,0,6.4,0"/>
	</g>
</g>
</svg>
