<?xml version="1.0" encoding="utf-8"?>
<!-- Generator: Adobe Illustrator 25.0.1, SVG Export Plug-In . SVG Version: 6.00 Build 0)  -->
<svg version="1.1" id="Capa_1" xmlns="http://www.w3.org/2000/svg" xmlns:xlink="http://www.w3.org/1999/xlink" x="0px" y="0px"
	 viewBox="0 0 388.7 190.3" style="enable-background:new 0 0 388.7 190.3;" xml:space="preserve">
<style type="text/css">
	.st0{fill:#42210B;}
	.st1{fill:#A67C52;}
	.st2{fill:#8C6239;}
	.st3{fill:#C69C6D;}
	.st4{fill:#FFFFFF;}
	.st5{fill:#FBB03B;}
	.st6{opacity:7.000000e-02;enable-background:new    ;}
	.st7{stroke:#000000;stroke-miterlimit:10;}
	.st8{enable-background:new    ;}
	.st9{fill:none;stroke:#000000;stroke-width:0.5;stroke-miterlimit:10;}
</style>
<g id="Buho">
	<path id="Oreja_derecha" class="st0" d="M148.4,50.1l-8-21c-1.1-2.8-5-3.6-7.4-1.7L118,40c-2.4,2-1.7,5.5,1.3,6.6l23,8.8
		C145.8,56.6,149.6,53.4,148.4,50.1z"/>
	<path id="Oreja_izquierda" class="st0" d="M64.4,55.6l21.7-8.9c3.2-1.3,3.7-5.1,0.9-7L69.2,27.6c-2.8-1.8-6.7-0.5-7.2,2.6l-4.1,21
		C57.5,54.6,61.2,57.1,64.4,55.6z"/>
	
		<ellipse id="Pata_izquierda" transform="matrix(0.8234 -0.5675 0.5675 0.8234 -61.7208 70.1757)" class="st1" cx="81.9" cy="134.2" rx="19.3" ry="13.7"/>
	
		<ellipse id="Pata_derecha" transform="matrix(0.5871 -0.8095 0.8095 0.5871 -58.9641 152.7265)" class="st1" cx="120.2" cy="134.2" rx="13.2" ry="19.6"/>
	<ellipse id="Cuerpo" class="st2" cx="101.7" cy="87.2" rx="67.2" ry="47.7"/>
	<ellipse id="Pecho" class="st3" cx="101.7" cy="104.4" rx="36.7" ry="29.8"/>
	<path id="Ala_izquierda" class="st0" d="M64.4,126.9c-8,3.8-20-6.1-26.5-22.4c-6.7-16.1-5.8-32.1,2.2-35.9s20,6.1,26.5,22.4
		C73.5,107.1,72.4,123.1,64.4,126.9z"/>
	<path id="Parte_fondo_ojos" class="st3" d="M122.5,44c-8.9,0-16.7,3.8-20.6,9.4C98,47.8,90.2,44,81.5,44c-12.6,0-23,7.8-23,17.4
		s10.2,17.4,23,17.4c8.9,0,16.7-3.8,20.6-9.4c3.9,5.6,11.7,9.4,20.4,9.4c12.6,0,23-7.8,23-17.4S135.1,44,122.5,44z"/>
	<ellipse id="Fondo_ojo_izquierdo" cx="80" cy="61.5" rx="15.4" ry="13.1"/>
	<ellipse id="Fondo_ojo_derecho" cx="124.5" cy="61.5" rx="15.4" ry="13.1"/>
	<ellipse id="Ojo_izquierdo" class="st4" cx="77" cy="54.9" rx="8.2" ry="3.3"/>
	<path id="Pico" class="st5" d="M99.8,78.7l-4.3-5.8c-1.1-1.7,0.2-3.5,2.6-3.5h8.7c2.4,0,3.9,2,2.6,3.5l-4.3,5.8
		C103.9,80.2,100.9,80.2,99.8,78.7z"/>
	<ellipse id="Ojo_derecho" class="st4" cx="122.8" cy="55.1" rx="8.2" ry="3.3"/>
	<path id="Ala_derecha" class="st0" d="M137.7,126.8c-8.9-2-10.2-16.4-3.3-32.3c7-15.9,19.7-27.3,28.6-25.5
		c8.9,2,10.2,16.4,3.3,32.3C159.2,117.2,146.4,128.6,137.7,126.8z"/>
	<g id="Plumas">
		<path class="st2" d="M77.2,92.5c6.1,6,13.7-0.2,13.7-0.2"/>
		<path class="st2" d="M95,92.7c6.1,6,13.7-0.2,13.7-0.2"/>
		<path class="st2" d="M112.4,92.7c6.1,6,13.7-0.2,13.7-0.2"/>
		<path class="st2" d="M85.2,104.1c6.1,6,13.7-0.2,13.7-0.2"/>
		<path class="st2" d="M105.8,104.1c6.1,6,13.7-0.2,13.7-0.2"/>
		<path class="st2" d="M96.1,113c6.1,6,13.7,0,13.7,0"/>
	</g>
</g>
<g id="Titulo" class="st6">
	<path class="st7" d="M200.1,71.3v1.5H196v52.9h4.1v1.5h-22.8v-1.5h4.1V72.9h-4.1v-1.5h22.8V71.3z"/>
	<path class="st7" d="M226.4,95.3c1.7-4,4.4-6.9,10-6.9c8.6,0,13.7,6.2,13.7,20c0,13.6-5.2,19.8-15.4,19.8c-5.2,0-7.8-1.5-8.8-5.5
		l-0.5,4.7h-17.1V126h4.1V68.7h-4.1v-1.5h18.1V95.3z M226.4,102.7v14.9c0,4.4,1.7,8.2,4.9,8.2c3.7,0,4.4-4.7,4.4-15.8v-4.2
		c0-11.3-0.8-14-3.4-14C229.1,91.8,226.4,95.6,226.4,102.7z"/>
	<path class="st7" d="M276.1,89.3V126h4.2v1.5H258V126h4.1V90.7h-4.4v-1.5H276.1z M269.4,68.9c4.7,0,7.4,2.5,7.4,7.3
		c0,4.2-2.2,7.5-7.6,7.5c-6.1,0-7.4-4-7.4-7.5C261.8,72.4,263.8,68.9,269.4,68.9z"/>
	<path class="st7" d="M289.1,113.8h0.8c2.7,9.8,7.3,12.6,13.5,12.6c5.6,0,7.6-2.2,7.6-5.3c0-3.6-3.7-4.4-9.3-6
		c-5.9-1.8-12.7-4.2-12.7-13.1c0-8.2,5.2-13.5,13.2-13.5c3.4,0,5.6,0.9,7.6,1.8c0.8,0.4,1.2,0.7,2,0.7c1.2,0,1.7-0.7,2.7-2.7h0.8
		v12.2h-0.8c-2.7-7.3-6.6-10.4-11.8-10.4c-4.9,0-6.9,2.2-6.9,4.7c0,3.6,4.6,4.5,9.5,6c5.9,1.6,12.5,4.2,12.5,13.6
		c0,9.1-5.6,13.6-14,13.6c-3.5,0-6.1-0.7-9-2.4c-0.5-0.4-1.2-0.7-1.4-0.7c-1,0-2,0.7-3.2,2.9h-0.8v-14.2H289.1z"/>
</g>
<g id="Subtitulo">
	<g class="st8">
		<path d="M207.7,134.9l-0.5,4.2h3.8l-0.2,0.7H207l-0.5,4.4h4.5l-0.2,0.7h-5l1.4-10.9h4.8l-0.2,0.7
			C211.8,134.9,207.7,134.9,207.7,134.9z"/>
		<path d="M211.8,144l0.3-0.5c0.3,0.5,1,1,1.9,1c1,0,1.7-0.7,1.7-1.7c0-2-3.1-0.7-3.1-3.5c0-1.5,0.9-2.5,2.2-2.5
			c0.7,0,1.4,0.2,1.7,0.7l-0.2,0.5c-0.3-0.5-1-0.7-1.5-0.7c-1,0-1.7,0.7-1.7,1.7c0,2,3.1,0.7,3.1,3.5c0,1.5-0.9,2.5-2.2,2.5
			C213,145,212.2,144.5,211.8,144z"/>
		<path d="M217.1,141.6c0-2.7,1.4-4.9,3.1-4.9c1,0,1.7,0.5,2.1,1.5l-0.3,0.5c-0.3-0.7-0.9-1.2-1.7-1.2c-1.5,0-2.6,1.7-2.6,4.2
			c0,1.7,0.7,2.7,1.9,2.7c0.7,0,1.4-0.5,1.7-1.2l0.3,0.5c-0.5,1-1.4,1.5-2.2,1.5C218.2,145,217.1,143.8,217.1,141.6z"/>
		<path d="M228.8,136.9l-1,8.1h-0.5l0.2-1.5c-0.5,1.2-1.4,1.5-2.2,1.5c-1.2,0-1.9-1-1.9-2.5c0-0.2,0-0.5,0-1l0.7-4.7h0.5l-0.7,4.7
			c0,0.2,0,0.5,0,0.7c0,1.2,0.5,2,1.5,2c1.2,0,2.1-1,2.4-3l0.5-4.4C228.3,136.9,228.8,136.9,228.8,136.9z"/>
		<path d="M230.4,141.1c0,0.2,0,0.2,0,0.5c0,1.7,0.7,2.7,2.1,2.7c0.7,0,1.4-0.5,1.9-1l0.2,0.5c-0.5,0.7-1.2,1.2-2.1,1.2
			c-1.5,0-2.4-1.2-2.4-3.5c0-2.7,1.2-4.9,2.9-4.9c1.4,0,2.2,1.2,2.2,3.5c0,0.2,0,0.7,0,1C235.2,141.1,230.4,141.1,230.4,141.1z
			 M230.4,140.6h4.1c0-0.2,0-0.2,0-0.5c0-1.7-0.7-2.7-1.9-2.7C231.6,137.4,230.7,138.6,230.4,140.6z"/>
		<path d="M237.6,133.4h0.5l-1.5,11.6H236L237.6,133.4z"/>
		<path d="M244.6,136.9l-1,8.1h-0.5l0.2-1.5c-0.5,1-1.4,1.7-2.2,1.7c-1.4,0-2.4-1.2-2.4-3.5c0-2.7,1.2-4.9,3.1-4.9
			c1.2,0,1.9,0.7,2.1,2l0.3-2H244.6z M243.6,140.3c0-1.7-0.7-2.7-1.9-2.7c-1.4,0-2.6,1.7-2.6,4.2c0,1.7,0.7,2.7,1.9,2.7
			C242.6,144.3,243.6,142.6,243.6,140.3z"/>
		<path d="M249.4,136.9h0.5l-1,8.1h-0.5L249.4,136.9z M249.6,134.4c0-0.5,0.2-0.7,0.5-0.7c0.2,0,0.3,0.2,0.3,0.5
			c0,0.5-0.2,0.7-0.5,0.7C249.8,134.9,249.6,134.7,249.6,134.4z"/>
		<path d="M256.7,139.3c0,0.2,0,0.5,0,1L256,145h-0.5l0.7-4.7c0-0.2,0-0.5,0-0.7c0-1.2-0.5-2-1.5-2c-1.2,0-2.1,1-2.4,3l-0.5,4.4
			h-0.5l1-8.1h0.5l-0.2,1.5c0.5-1,1.4-1.5,2.2-1.5C256,136.9,256.7,137.9,256.7,139.3z"/>
		<path d="M259.9,135.9l-0.2,1.2h1.7v0.7h-1.7l-1,7.4h-0.5l1-7.4h-1v-0.7h1l0.2-1.2c0.2-1.5,0.9-2.2,1.7-2.2c0.3,0,0.9,0.2,1,0.5
			l-0.2,0.5c-0.2-0.2-0.5-0.5-0.9-0.5C260.4,134.2,260.1,134.7,259.9,135.9z"/>
		<path d="M267.1,136.9l-1,8.1h-0.5l0.2-1.5c-0.5,1-1.4,1.7-2.2,1.7c-1.4,0-2.4-1.2-2.4-3.5c0-2.7,1.2-4.9,3.1-4.9
			c1.2,0,1.9,0.7,2.1,2l0.3-2H267.1z M266.3,140.3c0-1.7-0.7-2.7-1.9-2.7c-1.4,0-2.6,1.7-2.6,4.2c0,1.7,0.7,2.7,1.9,2.7
			C265.1,144.3,266.3,142.6,266.3,140.3z"/>
		<path d="M273.8,139.3c0,0.2,0,0.5,0,1l-0.7,4.7h-0.5l0.7-4.7c0-0.2,0-0.5,0-0.7c0-1.2-0.5-2-1.5-2c-1.2,0-2.1,1-2.4,3l-0.5,4.4
			h-0.5l1-8.1h0.5l-0.2,1.5c0.5-1,1.4-1.5,2.2-1.5C273.1,136.9,273.8,137.9,273.8,139.3z"/>
		<path d="M276.2,142.6c0,0.2,0,0.5,0,0.5c0,0.7,0.3,1.2,0.9,1.2c0.3,0,0.7-0.2,0.9-0.5l0.2,0.5c-0.3,0.5-0.7,0.5-1.2,0.5
			c-0.9,0-1.2-0.7-1.2-1.7c0-0.2,0-0.5,0-0.7l0.7-5.2h-1v-0.7h1l0.2-1.7h0.5l-0.2,1.7h1.7v0.7h-1.7L276.2,142.6z"/>
		<path d="M280.4,136.9h0.5l-1,8.1h-0.5L280.4,136.9z M280.5,134.4c0-0.5,0.2-0.7,0.5-0.7c0.2,0,0.3,0.2,0.3,0.5
			c0,0.5-0.2,0.7-0.5,0.7C280.7,134.9,280.5,134.7,280.5,134.4z"/>
		<path d="M283.6,133.4h0.5l-1.5,11.6h-0.5L283.6,133.4z"/>
	</g>
	<line class="st9" x1="194.3" y1="140.3" x2="202.4" y2="140.3"/>
	<line class="st9" x1="285.7" y1="140.6" x2="293.7" y2="140.6"/>
</g>
<g>
	<path class="st4" d="M201.9,71.3v1.5h-4.1v52.9h4.1v1.5h-22.8v-1.5h4.1V72.9h-4.1v-1.5h22.8V71.3z"/>
	<path class="st4" d="M228.1,95.3c1.7-4,4.4-6.9,10-6.9c8.6,0,13.7,6.2,13.7,20c0,13.6-5.2,19.8-15.4,19.8c-5.2,0-7.8-1.5-8.8-5.5
		l-0.5,4.7H210V126h4.1V68.7H210v-1.5h18.1C228.1,67.3,228.1,95.3,228.1,95.3z M228.1,102.7v14.9c0,4.4,1.7,8.2,4.9,8.2
		c3.7,0,4.4-4.7,4.4-15.8v-4.2c0-11.3-0.8-14-3.4-14C231,91.8,228.1,95.6,228.1,102.7z"/>
	<path class="st4" d="M277.8,89.3V126h4.2v1.5h-22.3V126h4.1V90.7h-4.4v-1.5H277.8z M271.1,68.9c4.6,0,7.4,2.5,7.4,7.3
		c0,4.2-2.2,7.5-7.6,7.5c-6.1,0-7.4-4-7.4-7.5C263.4,72.4,265.5,68.9,271.1,68.9z"/>
	<path class="st4" d="M290.8,113.8h0.8c2.7,9.8,7.3,12.6,13.5,12.6c5.6,0,7.6-2.2,7.6-5.3c0-3.6-3.7-4.4-9.3-6
		c-5.9-1.8-12.7-4.2-12.7-13.1c0-8.2,5.2-13.5,13.2-13.5c3.4,0,5.6,0.9,7.6,1.8c0.8,0.4,1.2,0.7,2,0.7c1.2,0,1.7-0.7,2.7-2.7h0.8
		v12.2h-0.8c-2.7-7.3-6.6-10.4-11.8-10.4c-4.9,0-6.9,2.2-6.9,4.7c0,3.6,4.6,4.5,9.5,6c5.9,1.6,12.5,4.2,12.5,13.6
		c0,9.1-5.6,13.6-14,13.6c-3.5,0-6.1-0.7-9-2.4c-0.5-0.4-1.2-0.7-1.4-0.7c-1,0-2,0.7-3.2,2.9h-0.8v-14.2H290.8z"/>
</g>
</svg>
